<svg xmlns="http://www.w3.org/2000/svg" viewBox="0 0 180 180" role="img" aria-label="Trust Anchor">
  <title>Trust Anchor</title>

  <!-- White background -->
  <rect width="180" height="180" rx="36" fill="#ffffff"/>

  <!-- Outer ring -->
  <circle cx="90" cy="90" r="68" fill="none" stroke="#0078D4" stroke-width="10"/>

  <!-- Inner ring -->
  <circle cx="90" cy="90" r="52" fill="none" stroke="#0078D4" stroke-width="2.5" opacity="0.45"/>

  <!-- Three chevrons -->
  <g fill="#0078D4">
    <polygon points="68,12 112,12 90,48"/>
    <polygon points="68,12 112,12 90,48" transform="rotate(120 90 90)"/>
    <polygon points="68,12 112,12 90,48" transform="rotate(240 90 90)"/>
  </g>

  <!-- Anchor at center: MDI-style anchor, scaled 3.0x -->
  <g transform="translate(90 90) scale(3.0) translate(-12 -12)" fill="#0078D4">
    <path d="M12 2a3 3 0 0 0-3 3a3 3 0 0 0 2 2.83V9H8v2h3v8.92c-.74-.13-1.5-.34-2.21-.65c-.74-.32-1.39-.71-1.97-1.18s-1.04-.98-1.38-1.54L7 15l-4-3v3c0 .97.27 1.88.82 2.72A8.2 8.2 0 0 0 6 19.95c.87.64 1.84 1.14 2.88 1.5c1.05.36 2.09.55 3.12.55s2.07-.2 3.12-.56c1.04-.36 2.01-.86 2.88-1.49c.92-.64 1.63-1.38 2.18-2.23c.55-.84.82-1.75.82-2.72v-3l-4 3l1.56 1.55c-.34.56-.8 1.07-1.38 1.54s-1.23.86-1.97 1.18c-.71.31-1.47.52-2.21.65V11h3V9h-3V7.82A3 3 0 0 0 15 5a3 3 0 0 0-3-3m0 2a1 1 0 0 1 1 1a1 1 0 0 1-1 1a1 1 0 0 1-1-1a1 1 0 0 1 1-1"/>
  </g>
</svg>
